<svg width="102" height="69" viewBox="0 0 102 69" fill="none" xmlns="http://www.w3.org/2000/svg">
<g opacity="0.1">
<path d="M14.6464 34.5C14.6464 20.9379 21.8515 12.7293 35.6712 12.7293C49.4908 12.7293 56.6959 20.9379 56.6959 34.5C56.6959 48.0621 49.4908 56.2707 35.6712 56.2707C21.8515 56.2707 14.6464 48.0621 14.6464 34.5ZM71.3423 34.5C71.3423 12.4914 55.3966 0 35.6712 0C15.9457 0 0 12.4914 0 34.5C0 56.5086 15.9457 69 35.6712 69C55.3966 69 71.3423 56.5086 71.3423 34.5Z" fill="white"/>
<path d="M75.3057 1.54655V14.7517H87.3536V67.3345H102V1.54655H75.3057Z" fill="white"/>
</g>
</svg>
