<svg width="141" height="69" viewBox="0 0 141 69" fill="none" xmlns="http://www.w3.org/2000/svg">
<g opacity="0.1">
<path d="M14.6822 34.5C14.6822 20.9379 21.9049 12.7293 35.7583 12.7293C49.6117 12.7293 56.8344 20.9379 56.8344 34.5C56.8344 48.0621 49.6117 56.2707 35.7583 56.2707C21.9049 56.2707 14.6822 48.0621 14.6822 34.5ZM71.5166 34.5C71.5166 12.4914 55.5319 0 35.7583 0C15.9847 0 0 12.4914 0 34.5C0 56.5086 15.9847 69 35.7583 69C55.5319 69 71.5166 56.5086 71.5166 34.5Z" fill="white"/>
<path d="M139.342 54.1293H104.413L128.686 40.8052C136.264 36.6414 141 30.8121 141 22.9603C141 7.2569 128.449 0 111.044 0C99.4398 0 89.257 3.45 80.3766 12.8483L89.3754 22.2466C95.8877 16.2983 101.571 13.4431 110.333 13.4431C120.871 13.4431 126.318 16.6552 126.318 22.6035C126.318 26.0535 124.542 28.5517 120.99 30.5741L82.0343 52.8207V67.3345H139.342V54.1293Z" fill="white"/>
</g>
</svg>
