<svg width="141" height="69" viewBox="0 0 141 69" fill="none" xmlns="http://www.w3.org/2000/svg">
<g opacity="0.1">
<path d="M14.6487 34.5C14.6487 20.9379 21.8549 12.7293 35.6766 12.7293C49.4984 12.7293 56.7046 20.9379 56.7046 34.5C56.7046 48.0621 49.4984 56.2707 35.6766 56.2707C21.8549 56.2707 14.6487 48.0621 14.6487 34.5ZM71.3532 34.5C71.3532 12.4914 55.4051 0 35.6766 0C15.9482 0 0 12.4914 0 34.5C0 56.5086 15.9482 69 35.6766 69C55.4051 69 71.3532 56.5086 71.3532 34.5Z" fill="white"/>
<path d="M93.9825 25.1017V37.831H116.546C123.752 37.831 126.233 40.9241 126.233 45.5638C126.233 53.1776 119.972 55.9138 106.741 55.9138C97.054 55.9138 91.0291 53.5345 82.7597 47.8241L75.6716 59.0069C84.1773 65.9069 94.6913 69 106.032 69C117.609 69 125.997 67.3345 132.14 62.6948C137.81 58.4121 141 52.5828 141 45.9207C141 38.4259 137.692 33.4293 131.077 30.5741C134.739 28.4328 136.747 24.3879 136.747 20.1052C136.747 13.681 134.503 8.92241 129.777 5.59138C124.107 1.54655 116.901 0 106.505 0C96.227 0 88.4301 2.02242 78.7431 9.27931L85.4768 19.5103C92.4467 14.6328 98.1172 13.0862 106.741 13.0862C117.727 13.0862 121.98 15.1086 121.98 19.9862C121.98 23.4362 120.09 25.1017 116.31 25.1017H93.9825Z" fill="white"/>
</g>
</svg>
