<svg width="147" height="69" viewBox="0 0 147 69" fill="none" xmlns="http://www.w3.org/2000/svg">
<g opacity="0.1">
<path d="M14.6548 34.5C14.6548 20.9379 21.864 12.7293 35.6914 12.7293C49.5189 12.7293 56.7281 20.9379 56.7281 34.5C56.7281 48.0621 49.5189 56.2707 35.6914 56.2707C21.864 56.2707 14.6548 48.0621 14.6548 34.5ZM71.3829 34.5C71.3829 12.4914 55.4281 0 35.6914 0C15.9548 0 0 12.4914 0 34.5C0 56.5086 15.9548 69 35.6914 69C55.4281 69 71.3829 56.5086 71.3829 34.5Z" fill="white"/>
<path d="M115.445 1.54655L79.5172 44.0172V56.9845H125.491V67.3345H140.145V56.9845H147V44.0172H140.145V1.54655H115.445ZM121.236 14.8707H125.491V44.0172H97.9538L121.236 14.8707Z" fill="white"/>
</g>
</svg>
