<svg width="42" height="42" viewBox="0 0 42 42" fill="none" xmlns="http://www.w3.org/2000/svg">
<path d="M12.9151 36.7674C13.7726 37.6249 15.1551 37.6249 16.0126 36.7674L30.5551 22.2249C30.7173 22.063 30.846 21.8707 30.9339 21.659C31.0217 21.4473 31.0669 21.2203 31.0669 20.9912C31.0669 20.762 31.0217 20.535 30.9339 20.3233C30.846 20.1116 30.7173 19.9193 30.5551 19.7574L16.0126 5.2149C15.1551 4.3574 13.7726 4.3574 12.9151 5.2149C12.0576 6.0724 12.0576 7.4549 12.9151 8.3124L25.5851 20.9999L12.8976 33.6874C12.0576 34.5274 12.0576 35.9274 12.9151 36.7674Z" fill="#F0CF90"/>
</svg>
