<svg width="42" height="42" viewBox="0 0 42 42" fill="none" xmlns="http://www.w3.org/2000/svg">
<path d="M29.0851 5.2326C28.2276 4.3751 26.8451 4.3751 25.9876 5.2326L11.4451 19.7751C11.2829 19.937 11.1542 20.1293 11.0664 20.341C10.9786 20.5527 10.9334 20.7797 10.9334 21.0088C10.9334 21.238 10.9786 21.465 11.0664 21.6767C11.1542 21.8884 11.2829 22.0807 11.4451 22.2426L25.9876 36.7851C26.8451 37.6426 28.2276 37.6426 29.0851 36.7851C29.9426 35.9276 29.9426 34.5451 29.0851 33.6876L16.4151 21.0001L29.1026 8.3126C29.9426 7.4726 29.9426 6.0726 29.0851 5.2326Z" fill="#F0CF90"/>
</svg>
