<svg width="34" height="34" viewBox="0 0 34 34" fill="none" xmlns="http://www.w3.org/2000/svg">
<path d="M17.0566 2.83309C9.32155 2.83309 3.01739 9.13726 3.01739 16.8723C3.01739 19.3514 3.66905 21.7598 4.88739 23.8848L2.90405 31.1664L10.3416 29.2114C12.3957 30.3306 14.7049 30.9256 17.0566 30.9256C24.7916 30.9256 31.0957 24.6214 31.0957 16.8864C31.0957 13.1323 29.6366 9.60476 26.9874 6.95559C25.6886 5.64365 24.1416 4.60345 22.4365 3.89566C20.7315 3.18787 18.9026 2.82666 17.0566 2.83309ZM17.0707 5.19893C20.1874 5.19893 23.1057 6.41726 25.3157 8.62726C26.4003 9.71151 27.2602 10.9992 27.8461 12.4165C28.432 13.8338 28.7323 15.3528 28.7299 16.8864C28.7299 23.3181 23.4882 28.5456 17.0566 28.5456C14.9599 28.5456 12.9057 27.9931 11.1207 26.9164L10.6957 26.6756L6.27572 27.8373L7.45155 23.5306L7.16822 23.0773C5.99797 21.2195 5.37899 19.0678 5.38322 16.8723C5.39739 10.4406 10.6249 5.19893 17.0707 5.19893ZM12.0841 10.3839C11.8574 10.3839 11.4749 10.4689 11.1491 10.8231C10.8374 11.1773 9.91655 12.0414 9.91655 13.7556C9.91655 15.4839 11.1774 17.1414 11.3332 17.3823C11.5316 17.6231 13.8266 21.1648 17.3541 22.6664C18.1899 23.0489 18.8416 23.2614 19.3516 23.4173C20.1874 23.6864 20.9524 23.6439 21.5616 23.5589C22.2416 23.4598 23.6299 22.7089 23.9274 21.8873C24.2249 21.0656 24.2249 20.3714 24.1399 20.2156C24.0407 20.0739 23.8141 19.9889 23.4599 19.8331C23.1057 19.6348 21.3774 18.7848 21.0657 18.6714C20.7399 18.5581 20.5416 18.5014 20.2724 18.8414C20.0457 19.1956 19.3657 19.9889 19.1674 20.2156C18.9549 20.4564 18.7566 20.4848 18.4166 20.3148C18.0482 20.1306 16.9149 19.7623 15.5832 18.5723C14.5349 17.6373 13.8407 16.4898 13.6282 16.1356C13.4582 15.7956 13.6141 15.5831 13.7841 15.4273C13.9399 15.2714 14.1666 15.0164 14.3082 14.8039C14.4924 14.6056 14.5491 14.4498 14.6624 14.2231C14.7757 13.9823 14.7191 13.7839 14.6341 13.6139C14.5491 13.4581 13.8407 11.7014 13.5432 11.0073C13.2599 10.3273 12.9766 10.4123 12.7499 10.3981C12.5516 10.3981 12.3249 10.3839 12.0841 10.3839Z" fill="white"/>
</svg>
