<svg width="6" height="5" viewBox="0 0 6 5" fill="none" xmlns="http://www.w3.org/2000/svg">
<path d="M1.92377 3.60058L5.09865 0.16035C5.19731 0.0534497 5.32287 0 5.47534 0C5.6278 0 5.75336 0.0534497 5.85202 0.16035C5.95067 0.26725 6 0.403304 6 0.568513C6 0.733722 5.95067 0.869777 5.85202 0.976676L2.30045 4.82507C2.19282 4.94169 2.06726 5 1.92377 5C1.78027 5 1.65471 4.94169 1.54709 4.82507L0.147982 3.30904C0.0493271 3.20214 0 3.06608 0 2.90087C0 2.73567 0.0493271 2.59961 0.147982 2.49271C0.246637 2.38581 0.372197 2.33236 0.524664 2.33236C0.67713 2.33236 0.802691 2.38581 0.901345 2.49271L1.92377 3.60058Z" fill="#F0CF90"/>
</svg>
