<svg width="91" height="91" viewBox="0 0 91 91" fill="none" xmlns="http://www.w3.org/2000/svg">
<rect x="0.5" y="0.5" width="90" height="90" rx="45" stroke="white" stroke-opacity="0.2"/>
<rect x="8.40015" y="8.40039" width="74.2" height="74.2" rx="37.1" fill="#F0CF90" fill-opacity="0.25"/>
<path d="M56.3389 34.7971C56.1207 34.6618 55.8767 34.5689 55.6209 34.5237C55.3651 34.4785 55.1024 34.4819 54.848 34.5337C54.5936 34.5855 54.3523 34.6847 54.138 34.8256C53.9237 34.9665 53.7405 35.1463 53.599 35.3548L42.4978 51.7012L37.0839 46.9192C36.8929 46.7505 36.669 46.6194 36.4249 46.5334C36.1809 46.4473 35.9215 46.408 35.6615 46.4177C35.1365 46.4374 34.6412 46.6555 34.2845 47.024C33.9279 47.3925 33.739 47.8813 33.7596 48.3828C33.7801 48.8843 34.0084 49.3575 34.3942 49.6982L41.5026 55.9766C41.5026 55.9766 41.7067 56.1444 41.8011 56.2031C42.0193 56.3385 42.2634 56.4315 42.5193 56.4767C42.7752 56.522 43.0379 56.5186 43.2924 56.4668C43.5469 56.415 43.7882 56.3158 44.0026 56.1749C44.217 56.0339 44.4002 55.854 44.5417 55.6454L56.9227 37.4146C57.0643 37.2061 57.1616 36.9731 57.2089 36.7287C57.2562 36.4843 57.2527 36.2334 57.1984 35.9903C57.1442 35.7473 57.0404 35.5168 56.8929 35.3121C56.7455 35.1073 56.5572 34.9323 56.3389 34.7971Z" fill="white"/>
</svg>
