<svg width="98" height="56" viewBox="0 0 98 56" fill="none" xmlns="http://www.w3.org/2000/svg">
<path fill-rule="evenodd" clip-rule="evenodd" d="M0 50.2055C0 49.9548 0.203222 49.7516 0.453908 49.7516H13.2034C13.4541 49.7516 13.6573 49.9548 13.6573 50.2055C13.6573 50.4562 13.4541 50.6594 13.2034 50.6594H0.453908C0.203222 50.6594 0 50.4562 0 50.2055Z" fill="#F0CF90"/>
<path fill-rule="evenodd" clip-rule="evenodd" d="M85.5469 50.2055C85.5469 49.9548 85.7501 49.7516 86.0008 49.7516H97.0004C97.2511 49.7516 97.4543 49.9548 97.4543 50.2055C97.4543 50.4562 97.2511 50.6594 97.0004 50.6594H86.0008C85.7501 50.6594 85.5469 50.4562 85.5469 50.2055Z" fill="#F0CF90"/>
<path fill-rule="evenodd" clip-rule="evenodd" d="M17.6494 50.2055C17.6494 49.9548 17.8526 49.7516 18.1033 49.7516H83.4009C83.6516 49.7516 83.8548 49.9548 83.8548 50.2055C83.8548 50.4562 83.6516 50.6594 83.4009 50.6594H18.1033C17.8526 50.6594 17.6494 50.4562 17.6494 50.2055Z" fill="#F0CF90"/>
<path fill-rule="evenodd" clip-rule="evenodd" d="M14.8765 55.6554C14.8765 55.5301 14.9781 55.4285 15.1034 55.4285H25.503C25.6284 55.4285 25.73 55.5301 25.73 55.6554C25.73 55.7807 25.6284 55.8823 25.503 55.8823H15.1034C14.9781 55.8823 14.8765 55.7807 14.8765 55.6554Z" fill="#F0CF90"/>
<path fill-rule="evenodd" clip-rule="evenodd" d="M31.626 55.6554C31.626 55.5301 31.7276 55.4285 31.8529 55.4285H42.3026C42.4279 55.4285 42.5295 55.5301 42.5295 55.6554C42.5295 55.7807 42.4279 55.8823 42.3026 55.8823H31.8529C31.7276 55.8823 31.626 55.7807 31.626 55.6554Z" fill="#F0CF90"/>
<path fill-rule="evenodd" clip-rule="evenodd" d="M48.0254 55.6554C48.0254 55.5301 48.127 55.4285 48.2523 55.4285H69.7515C69.8769 55.4285 69.9785 55.5301 69.9785 55.6554C69.9785 55.7807 69.8769 55.8823 69.7515 55.8823H48.2523C48.127 55.8823 48.0254 55.7807 48.0254 55.6554Z" fill="#F0CF90"/>
<path fill-rule="evenodd" clip-rule="evenodd" d="M75.8745 55.6554C75.8745 55.5301 75.9761 55.4285 76.1015 55.4285H88.351C88.4763 55.4285 88.5779 55.5301 88.5779 55.6554C88.5779 55.7807 88.4763 55.8823 88.351 55.8823H76.1015C75.9761 55.8823 75.8745 55.7807 75.8745 55.6554Z" fill="#F0CF90"/>
<path fill-rule="evenodd" clip-rule="evenodd" d="M39.3027 10.4121C38.7816 10.4121 38.3577 10.836 38.3577 11.357C38.3577 11.878 38.7816 12.3019 39.3027 12.3019C39.8237 12.3019 40.2476 11.878 40.2476 11.357C40.2476 10.8359 39.8238 10.4121 39.3027 10.4121ZM37.3477 11.357C37.3477 10.278 38.2239 9.40204 39.3027 9.40204C40.3816 9.40204 41.2576 10.2781 41.2576 11.357C41.2576 12.4358 40.3816 13.312 39.3027 13.312C38.2238 13.312 37.3477 12.4359 37.3477 11.357Z" fill="#F0CF90"/>
<path fill-rule="evenodd" clip-rule="evenodd" d="M80.7508 22.9616C80.2298 22.9616 79.806 23.3855 79.806 23.9066C79.806 24.4276 80.2298 24.8514 80.7508 24.8514C81.2719 24.8514 81.6957 24.4276 81.6957 23.9066C81.6957 23.3855 81.2718 22.9616 80.7508 22.9616ZM78.7959 23.9066C78.7959 22.8277 79.6719 21.9515 80.7508 21.9515C81.8298 21.9515 82.7058 22.8277 82.7058 23.9066C82.7058 24.9854 81.8297 25.8615 80.7508 25.8615C79.6719 25.8615 78.7959 24.9854 78.7959 23.9066Z" fill="#F0CF90"/>
<path fill-rule="evenodd" clip-rule="evenodd" d="M18.7736 12.3775C19.0108 12.1403 19.3954 12.1403 19.6326 12.3775L21.7825 14.5274C22.0197 14.7646 22.0197 15.1492 21.7825 15.3864C21.5453 15.6236 21.1607 15.6236 20.9235 15.3864L18.7736 13.2364C18.5364 12.9992 18.5364 12.6146 18.7736 12.3775Z" fill="#F0CF90"/>
<path fill-rule="evenodd" clip-rule="evenodd" d="M21.7825 12.3775C22.0197 12.6146 22.0197 12.9992 21.7825 13.2364L19.6326 15.3864C19.3954 15.6236 19.0108 15.6236 18.7736 15.3864C18.5364 15.1492 18.5364 14.7646 18.7736 14.5274L20.9235 12.3775C21.1607 12.1403 21.5453 12.1403 21.7825 12.3775Z" fill="#F0CF90"/>
<path fill-rule="evenodd" clip-rule="evenodd" d="M59.7691 0.180997C60.0045 -0.0578986 60.3891 -0.0606645 60.628 0.174819L64.1279 3.6247C64.3668 3.86019 64.3695 4.24475 64.134 4.48364C63.8986 4.72254 63.514 4.7253 63.2751 4.48982L59.7752 1.03994C59.5363 0.804452 59.5336 0.419892 59.7691 0.180997Z" fill="#F0CF90"/>
<path fill-rule="evenodd" clip-rule="evenodd" d="M64.134 0.180997C64.3695 0.419892 64.3668 0.804452 64.1279 1.03994L60.628 4.48982C60.3891 4.7253 60.0045 4.72254 59.7691 4.48364C59.5336 4.24475 59.5363 3.86019 59.7752 3.6247L63.2751 0.174819C63.514 -0.0606645 63.8986 -0.0578986 64.134 0.180997Z" fill="#F0CF90"/>
<path fill-rule="evenodd" clip-rule="evenodd" d="M67.4696 31.0069C62.5047 27.8961 55.7141 24.8401 48.2553 24.8644L48.2524 24.8644C40.7917 24.8644 33.9997 27.9212 29.0344 31.0261C26.5587 32.5742 24.5555 34.1227 23.1728 35.2829C22.5626 35.7949 22.0741 36.2306 21.7201 36.5562C22.0741 36.8818 22.5626 37.3174 23.1728 37.8294C24.5555 38.9896 26.5587 40.5381 29.0344 42.0862C33.9997 45.191 40.7917 48.2479 48.2524 48.2479C55.713 48.2479 62.505 45.191 67.4703 42.0862C69.946 40.5381 71.9492 38.9896 73.3319 37.8294C73.9429 37.3168 74.4318 36.8807 74.786 36.5549C74.4318 36.2279 73.9424 35.7898 73.3308 35.2749C71.9482 34.111 69.9451 32.5579 67.4696 31.0069ZM76.1013 36.5562C76.7483 35.9194 76.7481 35.9191 76.7478 35.9189L76.747 35.918L76.7445 35.9155L76.7361 35.9071L76.7058 35.8767C76.6796 35.8506 76.6415 35.8129 76.5917 35.7644C76.4922 35.6673 76.3461 35.5267 76.1557 35.3491C75.775 34.9938 75.2169 34.4894 74.5001 33.886C73.0672 32.6797 70.9954 31.0735 68.4336 29.4683C63.3242 26.267 56.1909 23.0234 48.2509 23.0487C40.3127 23.0491 33.1808 26.2919 28.0718 29.4866C25.5102 31.0885 23.4386 32.6898 22.0058 33.892C21.2889 34.4935 20.7309 34.996 20.3502 35.35C20.1599 35.527 20.0138 35.667 19.9143 35.7637C19.8645 35.8121 19.8264 35.8496 19.8002 35.8756L19.7699 35.9058L19.7615 35.9142L19.7582 35.9176C19.7579 35.9179 19.7577 35.9181 20.4034 36.5562L19.7577 35.9181C19.4083 36.2717 19.4083 36.8406 19.7577 37.1942L20.4034 36.5562C19.7577 37.1942 19.7579 37.1945 19.7582 37.1948L19.7615 37.1981L19.7699 37.2065L19.8002 37.2367C19.8264 37.2627 19.8645 37.3003 19.9143 37.3487C20.0138 37.4454 20.1599 37.5853 20.3502 37.7624C20.7309 38.1163 21.2889 38.6188 22.0058 39.2203C23.4386 40.4225 25.5102 42.0238 28.0718 43.6256C33.1811 46.8206 40.3136 50.0635 48.2524 50.0635C56.1911 50.0635 63.3236 46.8206 68.4329 43.6256C70.9945 42.0238 73.0661 40.4225 74.499 39.2203C75.2158 38.6188 75.7738 38.1163 76.1545 37.7624C76.3448 37.5853 76.4909 37.4454 76.5904 37.3487C76.6402 37.3003 76.6783 37.2627 76.7045 37.2367L76.7348 37.2065L76.7432 37.1981L76.7465 37.1948C76.7468 37.1945 76.747 37.1942 76.1013 36.5562ZM76.1013 36.5562L76.747 37.1942C77.096 36.8411 77.0965 36.2732 76.7483 35.9194L76.1013 36.5562Z" fill="#F0CF90"/>
<path fill-rule="evenodd" clip-rule="evenodd" d="M48.2524 28.0142C43.5349 28.0142 39.7107 31.8386 39.7107 36.5561C39.7107 41.2737 43.5349 45.0979 48.2524 45.0979C52.97 45.0979 56.7942 41.2737 56.7942 36.5561C56.7942 31.8386 52.9699 28.0142 48.2524 28.0142ZM37.895 36.5561C37.895 30.8359 42.5321 26.1986 48.2524 26.1986C53.9727 26.1986 58.6098 30.8359 58.6098 36.5561C58.6098 42.2764 53.9727 46.9136 48.2524 46.9136C42.5322 46.9136 37.895 42.2764 37.895 36.5561Z" fill="#F0CF90"/>
<path fill-rule="evenodd" clip-rule="evenodd" d="M46.6851 32.6353C44.5206 33.5319 43.4927 36.0134 44.3893 38.1779C45.2859 40.3424 47.7673 41.3702 49.9318 40.4736C52.0964 39.577 53.1242 37.0955 52.2277 34.9311C51.3311 32.7666 48.8496 31.7387 46.6851 32.6353ZM42.7118 38.8728C41.4315 35.7818 42.8993 32.2382 45.9902 30.9578C49.0812 29.6775 52.6248 31.1453 53.9051 34.2362C55.1855 37.3272 53.7176 40.8707 50.6267 42.151C47.5358 43.4314 43.9922 41.9637 42.7118 38.8728Z" fill="#F0CF90"/>
</svg>
