<svg width="98" height="61" viewBox="0 0 98 61" fill="none" xmlns="http://www.w3.org/2000/svg">
<path fill-rule="evenodd" clip-rule="evenodd" d="M0 55.1053C0 54.8546 0.203222 54.6514 0.453908 54.6514H13.2034C13.4541 54.6514 13.6573 54.8546 13.6573 55.1053C13.6573 55.356 13.4541 55.5592 13.2034 55.5592H0.453908C0.203222 55.5592 0 55.356 0 55.1053Z" fill="#F0CF90"/>
<path fill-rule="evenodd" clip-rule="evenodd" d="M85.5469 55.1054C85.5469 54.8547 85.7501 54.6515 86.0008 54.6515H97.0004C97.2511 54.6515 97.4543 54.8547 97.4543 55.1054C97.4543 55.3561 97.2511 55.5593 97.0004 55.5593H86.0008C85.7501 55.5593 85.5469 55.3561 85.5469 55.1054Z" fill="#F0CF90"/>
<path fill-rule="evenodd" clip-rule="evenodd" d="M17.6492 55.1054C17.6492 54.8547 17.8524 54.6515 18.1031 54.6515H83.4006C83.6512 54.6515 83.8545 54.8547 83.8545 55.1054C83.8545 55.3561 83.6512 55.5593 83.4006 55.5593H18.1031C17.8524 55.5593 17.6492 55.3561 17.6492 55.1054Z" fill="#F0CF90"/>
<path fill-rule="evenodd" clip-rule="evenodd" d="M14.8264 60.5551C14.8264 60.4298 14.928 60.3282 15.0534 60.3282H25.503C25.6284 60.3282 25.73 60.4298 25.73 60.5551C25.73 60.6805 25.6284 60.7821 25.503 60.7821H15.0534C14.928 60.7821 14.8264 60.6805 14.8264 60.5551Z" fill="#F0CF90"/>
<path fill-rule="evenodd" clip-rule="evenodd" d="M31.626 60.5551C31.626 60.4298 31.7276 60.3282 31.8529 60.3282H42.3025C42.4278 60.3282 42.5294 60.4298 42.5294 60.5551C42.5294 60.6805 42.4278 60.7821 42.3025 60.7821H31.8529C31.7276 60.7821 31.626 60.6805 31.626 60.5551Z" fill="#F0CF90"/>
<path fill-rule="evenodd" clip-rule="evenodd" d="M48.0254 60.5551C48.0254 60.4298 48.127 60.3282 48.2523 60.3282H69.7515C69.8769 60.3282 69.9785 60.4298 69.9785 60.5551C69.9785 60.6805 69.8769 60.7821 69.7515 60.7821H48.2523C48.127 60.7821 48.0254 60.6805 48.0254 60.5551Z" fill="#F0CF90"/>
<path fill-rule="evenodd" clip-rule="evenodd" d="M75.8743 60.5551C75.8743 60.4298 75.9759 60.3282 76.1012 60.3282H88.3007C88.426 60.3282 88.5276 60.4298 88.5276 60.5551C88.5276 60.6805 88.426 60.7821 88.3007 60.7821H76.1012C75.9759 60.7821 75.8743 60.6805 75.8743 60.5551Z" fill="#F0CF90"/>
<path fill-rule="evenodd" clip-rule="evenodd" d="M19.953 20.764C19.2998 20.764 18.8105 21.2807 18.8105 21.9066C18.8105 22.5598 19.3271 23.0491 19.953 23.0491C20.6062 23.0491 21.0956 22.5325 21.0956 21.9066C21.0956 21.2807 20.6062 20.764 19.953 20.764ZM17.5957 21.9066C17.5957 20.6326 18.6063 19.5493 19.953 19.5493C21.2997 19.5493 22.3103 20.6326 22.3103 21.9066C22.3103 23.1806 21.2997 24.2639 19.953 24.2639C18.679 24.2639 17.5957 23.2533 17.5957 21.9066Z" fill="#F0CF90"/>
<path fill-rule="evenodd" clip-rule="evenodd" d="M77.8436 26.1564C77.8436 25.0712 77.0004 24.2268 75.9727 24.2635C75.9655 24.2637 75.9583 24.2639 75.951 24.2639C74.9286 24.2639 74.0585 25.0998 74.0585 26.1564C74.0585 27.1788 74.8944 28.0489 75.951 28.0489C76.9735 28.0489 77.8436 27.213 77.8436 26.1564ZM75.9402 23.0491C77.707 22.9921 79.0583 24.4452 79.0583 26.1564C79.0583 27.8997 77.6285 29.2637 75.951 29.2637C74.2078 29.2637 72.8438 27.8339 72.8438 26.1564C72.8438 24.4169 74.2674 23.055 75.9402 23.0491Z" fill="#F0CF90"/>
<path fill-rule="evenodd" clip-rule="evenodd" d="M45.3504 13.6588C45.0402 13.5367 44.8939 13.5507 44.8301 13.5712L44.8214 13.5739C44.7445 13.5978 44.6125 13.6768 44.432 13.9532C44.2503 14.2314 44.0869 14.604 43.9019 15.068C43.8703 15.1475 43.8377 15.2303 43.8043 15.3154C43.6561 15.6924 43.4905 16.1139 43.3049 16.4865C43.0801 16.9378 42.7638 17.4528 42.2772 17.7975C41.8003 18.1353 41.2219 18.2734 40.7258 18.3475C40.3182 18.4085 39.8719 18.4374 39.4711 18.4633C39.3791 18.4693 39.2894 18.4751 39.2031 18.4811C38.7084 18.5156 38.3032 18.5572 37.9797 18.6438C37.6717 18.7263 37.543 18.8227 37.4868 18.8914C37.4444 18.9576 37.3934 19.1007 37.4107 19.4138C37.4288 19.7438 37.5142 20.1379 37.6337 20.6191C37.6523 20.6941 37.6719 20.7716 37.692 20.8511C37.7922 21.2479 37.9046 21.6933 37.9724 22.1149C38.0531 22.6174 38.0945 23.2121 37.9196 23.7756L37.9169 23.7843C37.7346 24.3514 37.3399 24.807 36.9782 25.1567C36.6831 25.442 36.3359 25.724 36.0249 25.9766C35.9509 26.0368 35.8788 26.0953 35.8101 26.1518C35.4254 26.4677 35.1205 26.7368 34.9103 26.996C34.7026 27.2523 34.6606 27.4105 34.6606 27.5063C34.6606 27.6022 34.7026 27.7604 34.9103 28.0167C35.1205 28.2759 35.4254 28.545 35.8101 28.8609C35.8788 28.9174 35.9509 28.9759 36.025 29.0361C36.336 29.2887 36.6832 29.5707 36.9782 29.8559C37.3399 30.2057 37.7346 30.6613 37.9169 31.2284C38.0961 31.7861 38.0524 32.381 37.9722 32.8774C37.9052 33.2924 37.7943 33.7342 37.6949 34.13C37.6739 34.2134 37.6534 34.2949 37.634 34.3736C37.5147 34.8572 37.429 35.2567 37.4107 35.5914C37.3924 35.9279 37.4509 36.0711 37.4935 36.1313C37.5283 36.1805 37.6315 36.2769 37.9521 36.3602C38.2721 36.4434 38.677 36.4809 39.1783 36.5125C39.2525 36.5171 39.3291 36.5217 39.4077 36.5263C39.8239 36.551 40.2927 36.5787 40.7221 36.6446C41.2234 36.7214 41.8081 36.8669 42.2873 37.2224C42.7682 37.567 43.0817 38.078 43.3049 38.5262C43.4905 38.8987 43.6561 39.3203 43.8043 39.6973C43.8377 39.7824 43.8703 39.8652 43.9019 39.9447C44.0869 40.4087 44.2503 40.7813 44.432 41.0595C44.6125 41.3359 44.7445 41.4149 44.8214 41.4388L44.8301 41.4415C44.894 41.462 45.0403 41.4759 45.3504 41.3539C45.6603 41.2321 46.0112 41.0246 46.4373 40.7563C46.4972 40.7186 46.5589 40.6795 46.622 40.6395C46.9781 40.4136 47.3798 40.1589 47.7747 39.9574C48.2363 39.7218 48.7997 39.4981 49.4021 39.4981C50.0045 39.4981 50.5679 39.7218 51.0295 39.9574C51.4244 40.1589 51.8261 40.4136 52.1822 40.6395C52.2454 40.6795 52.307 40.7186 52.367 40.7563C52.7931 41.0246 53.144 41.2321 53.4539 41.3539C53.7641 41.4759 53.9104 41.462 53.9742 41.4415L53.9829 41.4388C54.0598 41.4149 54.1918 41.3359 54.3723 41.0595C54.554 40.7813 54.7174 40.4087 54.9024 39.9447C54.9341 39.8652 54.9666 39.7824 55.0001 39.6973C55.1482 39.3203 55.3139 38.8987 55.4994 38.5262C55.7242 38.0749 56.0405 37.5599 56.5271 37.2152C57.004 36.8774 57.5824 36.7393 58.0785 36.6652C58.4861 36.6042 58.9324 36.5753 59.3332 36.5494C59.4253 36.5434 59.5149 36.5376 59.6012 36.5316C60.096 36.4972 60.5011 36.4556 60.8247 36.3689C61.1237 36.2888 61.2537 36.1956 61.3125 36.1273C61.3628 36.0423 61.4105 35.882 61.3936 35.5692C61.3753 35.2314 61.2895 34.8319 61.1703 34.3486C61.1511 34.2708 61.1309 34.1904 61.1102 34.1079C61.0106 33.7112 60.8992 33.2675 60.8319 32.8484C60.7512 32.3453 60.7098 31.7506 60.8847 31.1871L60.8875 31.1784C61.0698 30.6113 61.4644 30.1557 61.8261 29.806C62.1212 29.5207 62.4684 29.2387 62.7793 28.9861C62.8534 28.9259 62.9255 28.8674 62.9943 28.8109C63.379 28.495 63.6838 28.2259 63.894 27.9667C64.1017 27.7104 64.1437 27.5522 64.1437 27.4564C64.1437 27.3606 64.1017 27.2025 63.8946 26.9476C63.6853 26.6899 63.381 26.4224 62.9977 26.1108C62.9223 26.0495 62.8428 25.9857 62.7609 25.92C62.4569 25.676 62.1196 25.4054 61.8334 25.1348C61.4749 24.7958 61.076 24.3501 60.8905 23.7936L60.8875 23.7843C60.7082 23.2266 60.7519 22.6317 60.8321 22.1352C60.8991 21.7203 61.0101 21.2785 61.1095 20.8828C61.1304 20.7993 61.1509 20.7178 61.1703 20.6391C61.2896 20.1556 61.3754 19.756 61.3936 19.4213C61.412 19.0849 61.3535 18.9416 61.3109 18.8815C61.276 18.8322 61.1728 18.7359 60.8522 18.6526C60.5322 18.5694 60.1273 18.5318 59.626 18.5003C59.5518 18.4956 59.4752 18.491 59.3966 18.4864C58.9804 18.4617 58.5116 18.434 58.0822 18.3681C57.5809 18.2912 56.9963 18.1458 56.517 17.7903C56.0361 17.4457 55.7227 16.9347 55.4994 16.4865C55.3139 16.1139 55.1482 15.6923 55 15.3154C54.9666 15.2303 54.9341 15.1475 54.9024 15.068C54.7174 14.604 54.554 14.2314 54.3723 13.9532C54.1918 13.6768 54.0598 13.5978 53.9829 13.5739L53.9742 13.5712C53.9104 13.5507 53.7641 13.5367 53.4539 13.6588C53.144 13.7806 52.7931 13.9881 52.367 14.2564C52.307 14.2941 52.2454 14.3332 52.1822 14.3733C51.8261 14.5991 51.4244 14.8538 51.0295 15.0553C50.5679 15.2909 50.0045 15.5147 49.4021 15.5147C48.7997 15.5147 48.2363 15.2909 47.7747 15.0553C47.3798 14.8538 46.9781 14.5991 46.622 14.3733C46.5589 14.3332 46.4972 14.2941 46.4373 14.2564C46.0112 13.9881 45.6603 13.7806 45.3504 13.6588ZM48.5999 13.4381C48.9742 13.6291 49.2295 13.699 49.4021 13.699C49.5747 13.699 49.83 13.6291 50.2043 13.4381C50.517 13.2785 50.8352 13.077 51.1942 12.8497C51.2612 12.8073 51.3296 12.764 51.3996 12.7199C51.8172 12.457 52.3007 12.1613 52.7893 11.9691C53.2764 11.7775 53.8909 11.6388 54.5254 11.8412C55.1711 12.0431 55.6003 12.513 55.8925 12.9605C56.1843 13.4073 56.4052 13.9347 56.589 14.3957C56.6285 14.4949 56.6664 14.5911 56.7032 14.6845C56.8493 15.0557 56.9781 15.3828 57.1246 15.677C57.3107 16.0507 57.4632 16.2356 57.5766 16.3159C57.5833 16.3207 57.5899 16.3255 57.5965 16.3305C57.7154 16.4196 57.9449 16.5102 58.3574 16.5734C58.6957 16.6253 59.0637 16.6474 59.4809 16.6724C59.5652 16.6775 59.6515 16.6826 59.74 16.6882C60.2324 16.7192 60.7993 16.7629 61.3089 16.8953C61.8181 17.0276 62.4023 17.2812 62.7924 17.832C63.1748 18.3718 63.2351 18.9973 63.2066 19.5202C63.178 20.0448 63.0512 20.5952 62.9331 21.0741C62.9094 21.1699 62.8861 21.263 62.8634 21.3537C62.765 21.7464 62.6779 22.0943 62.6245 22.4247C62.5586 22.833 62.57 23.0808 62.6145 23.2239C62.6556 23.3427 62.7823 23.5332 63.0809 23.8156C63.3081 24.0305 63.5665 24.238 63.86 24.4737C63.9509 24.5468 64.0453 24.6225 64.1431 24.702C64.5285 25.0154 64.9647 25.3854 65.3038 25.8027C65.6451 26.2228 65.9594 26.7772 65.9594 27.4564C65.9594 28.1355 65.6451 28.6897 65.3044 29.11C64.9662 29.5273 64.5305 29.8988 64.1465 30.2141C64.0594 30.2856 63.975 30.3542 63.8933 30.4207C63.5889 30.6682 63.3212 30.8859 63.0882 31.1112C62.7921 31.3975 62.6614 31.597 62.6174 31.7299C62.5685 31.8917 62.5591 32.1521 62.6246 32.5608C62.6782 32.8944 62.7656 33.2437 62.8644 33.6379C62.8868 33.7274 62.9098 33.8192 62.9331 33.9136C63.0513 34.3928 63.178 34.9432 63.2066 35.4711C63.2352 36 63.1731 36.6212 62.8023 37.1665C62.7945 37.1781 62.7863 37.1895 62.7779 37.2007C62.3797 37.7316 61.8055 37.9859 61.2943 38.1228C60.7835 38.2596 60.22 38.3086 59.7273 38.3429C59.6201 38.3503 59.5162 38.3571 59.4153 38.3637C59.021 38.3895 58.6719 38.4123 58.3469 38.4609C57.9337 38.5226 57.6997 38.6096 57.5766 38.6968C57.4632 38.7771 57.3107 38.962 57.1246 39.3357C56.9781 39.6299 56.8493 39.9569 56.7032 40.3282C56.6664 40.4216 56.6285 40.5178 56.589 40.617C56.4052 41.078 56.1843 41.6054 55.8925 42.0522C55.6003 42.4997 55.1711 42.9696 54.5254 43.1715C53.8908 43.3739 53.2764 43.2352 52.7893 43.0436C52.3007 42.8514 51.8173 42.5557 51.3996 42.2928C51.3296 42.2487 51.2611 42.2054 51.1941 42.163C50.8352 41.9357 50.517 41.7342 50.2043 41.5746C49.83 41.3837 49.5747 41.3137 49.4021 41.3137C49.2295 41.3137 48.9742 41.3837 48.5999 41.5746C48.2873 41.7342 47.969 41.9357 47.6101 42.163C47.5431 42.2054 47.4747 42.2487 47.4046 42.2928C46.987 42.5557 46.5036 42.8514 46.015 43.0436C45.5279 43.2352 44.9135 43.3739 44.2789 43.1715C43.6332 42.9696 43.204 42.4997 42.9118 42.0522C42.62 41.6054 42.3991 41.078 42.2154 40.617C42.1758 40.5178 42.1379 40.4216 42.1011 40.3281C41.955 39.9569 41.8263 39.6299 41.6797 39.3357C41.4936 38.962 41.3411 38.7771 41.2278 38.6968C41.221 38.692 41.2144 38.6872 41.2078 38.6822C41.0889 38.593 40.8594 38.5025 40.447 38.4392C40.1087 38.3874 39.7406 38.3653 39.3234 38.3403C39.2391 38.3353 39.1528 38.3301 39.0644 38.3245C38.5719 38.2935 38.005 38.2499 37.4954 38.1174C36.9863 37.9851 36.402 37.7315 36.0119 37.1808C35.6295 36.6409 35.5693 36.0155 35.5978 35.4926C35.6264 34.9679 35.7531 34.4175 35.8713 33.9386C35.8949 33.8428 35.9182 33.7497 35.9409 33.659C36.0393 33.2663 36.1265 32.9184 36.1798 32.588C36.2465 32.1751 36.234 31.9263 36.1883 31.784C36.1456 31.6511 36.0153 31.4505 35.7161 31.1612C35.4831 30.9359 35.2154 30.7182 34.9111 30.4707C34.8293 30.4042 34.7449 30.3356 34.6578 30.2641C34.2738 29.9488 33.8381 29.5773 33.4999 29.16C33.1592 28.7397 32.845 28.1855 32.845 27.5063C32.845 26.8272 33.1592 26.273 33.4999 25.8527C33.8381 25.4354 34.2738 25.0639 34.6578 24.7486C34.7449 24.6771 34.8293 24.6085 34.911 24.542C35.2154 24.2945 35.4831 24.0768 35.7161 23.8515C36.0122 23.5652 36.1429 23.3657 36.187 23.2328C36.2359 23.071 36.2452 22.8105 36.1797 22.4029C36.1259 22.0677 36.0375 21.7166 35.9378 21.321C35.9162 21.2351 35.894 21.1471 35.8716 21.0567C35.7536 20.5816 35.6265 20.0351 35.5978 19.5136C35.5691 18.9919 35.6303 18.3707 36.0119 17.832C36.0166 17.8253 36.0215 17.8186 36.0264 17.812C36.4246 17.2812 36.9988 17.0269 37.51 16.89C38.0208 16.7532 38.5843 16.7042 39.077 16.6699C39.1842 16.6624 39.2881 16.6556 39.389 16.649C39.7833 16.6232 40.1324 16.6004 40.4574 16.5518C40.8706 16.4901 41.1047 16.4031 41.2278 16.3159C41.3411 16.2356 41.4936 16.0507 41.6797 15.677C41.8263 15.3828 41.955 15.0558 42.1011 14.6845C42.1379 14.5911 42.1758 14.4949 42.2154 14.3957C42.3991 13.9347 42.62 13.4073 42.9118 12.9605C43.204 12.513 43.6332 12.0431 44.2789 11.8412C44.9135 11.6388 45.5279 11.7775 46.015 11.9691C46.5036 12.1613 46.9871 12.457 47.4047 12.7199C47.4747 12.764 47.5431 12.8073 47.6101 12.8497C47.969 13.077 48.2873 13.2785 48.5999 13.4381Z" fill="#F0CF90"/>
<path fill-rule="evenodd" clip-rule="evenodd" d="M46.2191 19.6486C41.9116 21.4328 39.8661 26.3711 41.6503 30.6786C43.4346 34.9861 48.3729 37.0316 52.6804 35.2474C56.9879 33.4631 59.0335 28.5247 57.2492 24.2172C55.465 19.9098 50.5266 17.8643 46.2191 19.6486ZM39.9729 31.3735C37.8049 26.1396 40.2903 20.1391 45.5242 17.9711C50.7581 15.8031 56.7587 18.2884 58.9267 23.5224C61.0947 28.7563 58.6092 34.7568 53.3753 36.9248C48.1413 39.0928 42.1409 36.6074 39.9729 31.3735Z" fill="#F0CF90"/>
<path fill-rule="evenodd" clip-rule="evenodd" d="M41.2034 36.8686C41.6659 37.0622 41.8838 37.5941 41.6902 38.0565L37.0816 49.066L40.7999 47.7498C41.2403 47.5939 41.7271 47.7977 41.9251 48.2209L43.6036 51.8084L48.3642 40.3574C48.5567 39.8944 49.088 39.6752 49.551 39.8676C50.0139 40.0601 50.2332 40.5914 50.0407 41.0544L44.4909 54.4039C44.3529 54.7359 44.0319 54.9551 43.6724 54.963C43.313 54.9708 42.9828 54.7657 42.8304 54.4401L40.6295 49.7362L35.7559 51.4613C35.4174 51.5812 35.04 51.4901 34.7933 51.2292C34.5466 50.9682 34.4769 50.5863 34.6156 50.255L40.0154 37.3555C40.209 36.893 40.7409 36.675 41.2034 36.8686Z" fill="#F0CF90"/>
<path fill-rule="evenodd" clip-rule="evenodd" d="M57.6018 36.8686C58.0642 36.675 58.5961 36.893 58.7897 37.3555L64.1895 50.255C64.3282 50.5863 64.2585 50.9682 64.0118 51.2292C63.7651 51.4902 63.3877 51.5812 63.0492 51.4613L58.1815 49.7383L56.0275 54.4339C55.8773 54.7614 55.5477 54.969 55.1875 54.9631C54.8272 54.9572 54.5046 54.7388 54.3653 54.4065L48.7655 41.0571C48.5715 40.5947 48.7891 40.0627 49.2515 39.8688C49.7138 39.6748 50.2458 39.8924 50.4398 40.3548L55.2395 51.7971L56.8772 48.2271C57.073 47.8001 57.5624 47.5931 58.0052 47.7499L61.7235 49.0661L57.1149 38.0566C56.9213 37.5941 57.1393 37.0622 57.6018 36.8686Z" fill="#F0CF90"/>
<path fill-rule="evenodd" clip-rule="evenodd" d="M49.4022 20.9988C49.7956 20.9988 50.1442 21.2521 50.2656 21.6263L51.3119 24.8486H54.702C55.0957 24.8486 55.4445 25.1023 55.5657 25.4769C55.687 25.8514 55.553 26.2614 55.234 26.4921L52.5197 28.4547L53.5656 31.6759C53.6865 32.0484 53.5549 32.4565 53.2391 32.6882C52.9233 32.9198 52.4946 32.9229 52.1755 32.6957L49.4062 30.7237L46.6842 32.6919C46.3659 32.9221 45.9356 32.9213 45.618 32.6901C45.3004 32.4588 45.1675 32.0495 45.2889 31.6759L46.3331 28.4595L43.5758 26.4959C43.2542 26.2668 43.1175 25.8561 43.2378 25.48C43.358 25.1039 43.7076 24.8486 44.1025 24.8486H47.4925L48.5387 21.6263C48.6602 21.2521 49.0088 20.9988 49.4022 20.9988ZM49.4022 24.8463L49.0157 26.0368C48.8942 26.4109 48.5456 26.6642 48.1522 26.6642H46.9422L47.9289 27.3669C48.2518 27.5968 48.3881 28.0097 48.2657 28.3867L47.8749 29.5904L48.8703 28.8707C49.1858 28.6425 49.6116 28.641 49.9288 28.8668L50.9899 29.6225L50.5887 28.3867C50.4671 28.012 50.601 27.6016 50.9202 27.3707L51.8973 26.6642H50.6521C50.2588 26.6642 49.9102 26.4109 49.7887 26.0368L49.4022 24.8463Z" fill="#F0CF90"/>
<path fill-rule="evenodd" clip-rule="evenodd" d="M69.5216 5.27769C69.7588 5.04049 70.1434 5.04049 70.3806 5.27769L75.5804 10.4775C75.8176 10.7147 75.8176 11.0993 75.5804 11.3365C75.3432 11.5737 74.9586 11.5737 74.7214 11.3365L69.5216 6.13665C69.2844 5.89945 69.2845 5.51488 69.5216 5.27769Z" fill="#F0CF90"/>
<path fill-rule="evenodd" clip-rule="evenodd" d="M75.5804 5.27769C75.8176 5.51488 75.8176 5.89945 75.5804 6.13665L70.3806 11.3365C70.1434 11.5737 69.7588 11.5737 69.5216 11.3365C69.2845 11.0993 69.2844 10.7147 69.5216 10.4775L74.7214 5.27769C74.9586 5.04049 75.3432 5.04049 75.5804 5.27769Z" fill="#F0CF90"/>
<path fill-rule="evenodd" clip-rule="evenodd" d="M40.4194 0.181525C40.6546 -0.0576578 41.0392 -0.0608925 41.2783 0.174299L44.2782 3.12414C44.5174 3.35933 44.5207 3.74389 44.2855 3.98307C44.0503 4.22225 43.6657 4.22549 43.4265 3.9903L40.4266 1.04046C40.1875 0.805263 40.1842 0.420707 40.4194 0.181525Z" fill="#F0CF90"/>
<path fill-rule="evenodd" clip-rule="evenodd" d="M44.2855 0.181525C44.5207 0.420707 44.5174 0.805263 44.2782 1.04046L41.2783 3.9903C41.0392 4.22549 40.6546 4.22225 40.4194 3.98307C40.1842 3.74389 40.1875 3.35933 40.4266 3.12414L43.4265 0.174299C43.6657 -0.0608925 44.0503 -0.0576578 44.2855 0.181525Z" fill="#F0CF90"/>
</svg>
