<svg width="98" height="61" viewBox="0 0 98 61" fill="none" xmlns="http://www.w3.org/2000/svg">
<path fill-rule="evenodd" clip-rule="evenodd" d="M39.8951 13.8772C38.7475 18.737 41.7569 23.6069 46.6168 24.7545C51.4766 25.902 56.3465 22.8926 57.4941 18.0328C58.6416 13.173 55.6322 8.30304 50.7724 7.15549C45.9126 6.00795 41.0426 9.01736 39.8951 13.8772ZM46.1995 26.5214C40.3638 25.1435 36.7501 19.2957 38.1281 13.46C39.5061 7.62426 45.3539 4.01055 51.1896 5.38852C57.0253 6.76649 60.639 12.6143 59.261 18.45C57.8831 24.2857 52.0352 27.8994 46.1995 26.5214Z" fill="#F0CF90"/>
<path fill-rule="evenodd" clip-rule="evenodd" d="M46.6607 29.5792C46.8655 29.7643 46.975 30.0325 46.9582 30.3081L46.0874 44.5796L48.7519 46.6521L51.4165 44.5796L50.5457 30.3081C50.529 30.0339 50.6373 29.7668 50.8404 29.5818C51.0434 29.3968 51.3194 29.3136 51.5908 29.3557C55.342 29.9368 58.6652 31.7324 61.1934 34.2607C61.7144 34.7817 62.199 35.3182 62.6356 35.9186C62.9305 36.3241 62.8409 36.8919 62.4354 37.1868C62.0299 37.4817 61.4622 37.392 61.1673 36.9865C60.8039 36.487 60.3886 36.0236 59.9096 35.5446C57.8938 33.5288 55.3228 32.0384 52.4293 31.3658L53.2579 44.947C53.2762 45.246 53.1457 45.5349 52.9092 45.7188L49.3093 48.5188C48.9815 48.7737 48.5224 48.7737 48.1946 48.5188L44.5947 45.7188C44.3582 45.5349 44.2277 45.246 44.2459 44.9469L45.0741 31.3749C38.1183 33.0403 32.9604 39.3001 32.9604 46.7522V53.2941H64.5435V48.0021C64.5435 47.5008 64.95 47.0943 65.4513 47.0943C65.9527 47.0943 66.3591 47.5008 66.3591 48.0021V54.2019C66.3591 54.7033 65.9527 55.1097 65.4513 55.1097H32.0526C31.5512 55.1097 31.1448 54.7033 31.1448 54.2019V46.7522C31.1448 38.0012 37.5233 30.7276 45.9056 29.3569C46.178 29.3123 46.4559 29.3942 46.6607 29.5792Z" fill="#F0CF90"/>
<path fill-rule="evenodd" clip-rule="evenodd" d="M58.3307 0.132945C58.508 -0.0443161 58.7954 -0.044315 58.9726 0.132948L63.0725 4.23283C63.2497 4.41009 63.2497 4.69749 63.0725 4.87475C62.8952 5.05202 62.6078 5.05201 62.4306 4.87475L58.3307 0.774868C58.1534 0.597605 58.1534 0.310207 58.3307 0.132945Z" fill="#F0CF90"/>
<path fill-rule="evenodd" clip-rule="evenodd" d="M63.0725 0.132945C63.2497 0.310207 63.2497 0.597605 63.0725 0.774868L58.9726 4.87475C58.7954 5.05201 58.508 5.05202 58.3307 4.87475C58.1534 4.69749 58.1534 4.41009 58.3307 4.23283L62.4306 0.132948C62.6078 -0.044315 62.8952 -0.0443161 63.0725 0.132945Z" fill="#F0CF90"/>
<path fill-rule="evenodd" clip-rule="evenodd" d="M21.2323 21.4321C21.4096 21.2549 21.697 21.2549 21.8742 21.4321L25.9741 25.532C26.1513 25.7093 26.1513 25.9967 25.9741 26.1739C25.7968 26.3512 25.5094 26.3512 25.3321 26.1739L21.2323 22.0741C21.055 21.8968 21.0551 21.6094 21.2323 21.4321Z" fill="#F0CF90"/>
<path fill-rule="evenodd" clip-rule="evenodd" d="M25.9741 21.4321C26.1513 21.6094 26.1513 21.8968 25.9741 22.0741L21.8742 26.1739C21.697 26.3512 21.4096 26.3512 21.2323 26.1739C21.0551 25.9967 21.055 25.7093 21.2323 25.532L25.3321 21.4321C25.5094 21.2549 25.7968 21.2549 25.9741 21.4321Z" fill="#F0CF90"/>
<path fill-rule="evenodd" clip-rule="evenodd" d="M72.9244 16.1712C73.1631 15.9355 73.5476 15.9378 73.7834 16.1765L77.8332 20.2763C78.069 20.5149 78.0666 20.8995 77.8279 21.1352C77.5893 21.371 77.2047 21.3686 76.969 21.13L72.9192 17.0302C72.6834 16.7915 72.6858 16.4069 72.9244 16.1712Z" fill="#F0CF90"/>
<path fill-rule="evenodd" clip-rule="evenodd" d="M77.8279 16.1712C78.0666 16.4069 78.069 16.7915 77.8332 17.0302L73.7834 21.13C73.5476 21.3686 73.1631 21.371 72.9244 21.1352C72.6858 20.8995 72.6834 20.5149 72.9192 20.2763L76.969 16.1765C77.2047 15.9378 77.5893 15.9355 77.8279 16.1712Z" fill="#F0CF90"/>
<path fill-rule="evenodd" clip-rule="evenodd" d="M61.4633 33.8527C61.4633 32.3227 62.6714 31.1147 64.2013 31.1147C65.7313 31.1147 66.9394 32.3227 66.9394 33.8527V37.2144H70.3011C71.8311 37.2144 73.0392 38.4224 73.0392 39.9524C73.0392 41.4824 71.8311 42.6905 70.3011 42.6905H66.9394V46.0522C66.9394 47.5822 65.7313 48.7903 64.2013 48.7903C62.6714 48.7903 61.4633 47.5823 61.4633 46.0522V42.6905H58.1016C56.5716 42.6905 55.3635 41.4824 55.3635 39.9524C55.3635 38.4224 56.5716 37.2144 58.1016 37.2144H61.4633V33.8527ZM64.2013 32.4909C63.4314 32.4909 62.8395 33.0828 62.8395 33.8527V37.9025C62.8395 38.2826 62.5314 38.5906 62.1514 38.5906H58.1016C57.3316 38.5906 56.7398 39.1825 56.7398 39.9524C56.7398 40.7224 57.3316 41.3142 58.1016 41.3142H62.1514C62.5314 41.3142 62.8395 41.6223 62.8395 42.0023V46.0522C62.8395 46.8221 63.4314 47.414 64.2013 47.414C64.9713 47.414 65.5631 46.8222 65.5631 46.0522V42.0023C65.5631 41.6223 65.8712 41.3142 66.2512 41.3142H70.3011C71.071 41.3142 71.6629 40.7224 71.6629 39.9524C71.6629 39.1825 71.071 38.5906 70.3011 38.5906H66.2512C65.8712 38.5906 65.5631 38.2826 65.5631 37.9025V33.8527C65.5631 33.0828 64.9713 32.4909 64.2013 32.4909Z" fill="#F0CF90"/>
<path fill-rule="evenodd" clip-rule="evenodd" d="M0 55.2518C0 55.0011 0.203222 54.7979 0.453908 54.7979H13.2034C13.4541 54.7979 13.6573 55.0011 13.6573 55.2518C13.6573 55.5025 13.4541 55.7057 13.2034 55.7057H0.453908C0.203222 55.7057 0 55.5025 0 55.2518Z" fill="#F0CF90"/>
<path fill-rule="evenodd" clip-rule="evenodd" d="M85.5471 55.2518C85.5471 55.0011 85.7503 54.7979 86.001 54.7979H97.0006C97.2513 54.7979 97.4545 55.0011 97.4545 55.2518C97.4545 55.5025 97.2513 55.7057 97.0006 55.7057H86.001C85.7503 55.7057 85.5471 55.5025 85.5471 55.2518Z" fill="#F0CF90"/>
<path fill-rule="evenodd" clip-rule="evenodd" d="M17.6494 55.2518C17.6494 55.0011 17.8526 54.7979 18.1033 54.7979H83.4009C83.6515 54.7979 83.8548 55.0011 83.8548 55.2518C83.8548 55.5025 83.6515 55.7057 83.4009 55.7057H18.1033C17.8526 55.7057 17.6494 55.5025 17.6494 55.2518Z" fill="#F0CF90"/>
<path fill-rule="evenodd" clip-rule="evenodd" d="M12.9768 60.7016C12.9768 60.5763 13.0784 60.4747 13.2037 60.4747H23.6034C23.7287 60.4747 23.8303 60.5763 23.8303 60.7016C23.8303 60.827 23.7287 60.9286 23.6034 60.9286H13.2037C13.0784 60.9286 12.9768 60.827 12.9768 60.7016Z" fill="#F0CF90"/>
<path fill-rule="evenodd" clip-rule="evenodd" d="M29.7263 60.7016C29.7263 60.5763 29.8279 60.4747 29.9533 60.4747H40.4028C40.5282 60.4747 40.6298 60.5763 40.6298 60.7016C40.6298 60.8269 40.5282 60.9286 40.4028 60.9286H29.9533C29.8279 60.9286 29.7263 60.8269 29.7263 60.7016Z" fill="#F0CF90"/>
<path fill-rule="evenodd" clip-rule="evenodd" d="M46.1257 60.7016C46.1257 60.5763 46.2273 60.4747 46.3527 60.4747H67.8519C67.9772 60.4747 68.0788 60.5763 68.0788 60.7016C68.0788 60.8269 67.9772 60.9286 67.8519 60.9286H46.3527C46.2273 60.9286 46.1257 60.8269 46.1257 60.7016Z" fill="#F0CF90"/>
<path fill-rule="evenodd" clip-rule="evenodd" d="M73.9749 60.7016C73.9749 60.5763 74.0765 60.4747 74.2018 60.4747H86.4513C86.5767 60.4747 86.6783 60.5763 86.6783 60.7016C86.6783 60.8269 86.5767 60.9286 86.4513 60.9286H74.2018C74.0765 60.9286 73.9749 60.8269 73.9749 60.7016Z" fill="#F0CF90"/>
<path fill-rule="evenodd" clip-rule="evenodd" d="M83.4009 30.8601C82.2864 30.8601 81.4084 31.7382 81.4084 32.8527C81.4084 33.9672 82.2864 34.8452 83.4009 34.8452C84.5154 34.8452 85.3934 33.9672 85.3934 32.8527C85.3934 31.7382 84.5153 30.8601 83.4009 30.8601ZM80.1936 32.8527C80.1936 31.0673 81.6154 29.6454 83.4009 29.6454C85.1863 29.6454 86.6081 31.0673 86.6081 32.8527C86.6081 34.6381 85.1862 36.06 83.4009 36.06C81.6155 36.06 80.1936 34.6381 80.1936 32.8527Z" fill="#F0CF90"/>
<path fill-rule="evenodd" clip-rule="evenodd" d="M30.7529 8.42658C29.9866 8.42658 29.3759 9.03721 29.3759 9.8036C29.3759 10.57 29.9865 11.1806 30.7529 11.1806C31.5193 11.1806 32.1299 10.57 32.1299 9.8036C32.1299 9.03722 31.5193 8.42658 30.7529 8.42658ZM28.53 9.8036C28.53 8.57006 29.5193 7.58066 30.7529 7.58066C31.9865 7.58066 32.9758 8.57005 32.9758 9.8036C32.9758 11.0372 31.9865 12.0265 30.7529 12.0265C29.5194 12.0265 28.53 11.0372 28.53 9.8036Z" fill="#F0CF90"/>
</svg>
