<svg width="98" height="57" viewBox="0 0 98 57" fill="none" xmlns="http://www.w3.org/2000/svg">
<path fill-rule="evenodd" clip-rule="evenodd" d="M13.924 21.1271C14.1612 20.8899 14.5458 20.8899 14.783 21.1271L18.8828 25.2269C19.12 25.4641 19.12 25.8487 18.8828 26.0859C18.6456 26.3231 18.261 26.3231 18.0238 26.0859L13.924 21.986C13.6868 21.7488 13.6868 21.3642 13.924 21.1271Z" fill="#F0CF90"/>
<path fill-rule="evenodd" clip-rule="evenodd" d="M18.8828 21.1271C19.12 21.3642 19.12 21.7488 18.8828 21.986L14.783 26.0859C14.5458 26.3231 14.1612 26.3231 13.924 26.0859C13.6868 25.8487 13.6868 25.4641 13.924 25.2269L18.0238 21.1271C18.261 20.8899 18.6456 20.8899 18.8828 21.1271Z" fill="#F0CF90"/>
<path fill-rule="evenodd" clip-rule="evenodd" d="M74.9713 13.6273C75.2085 13.3901 75.5931 13.3901 75.8303 13.6273L79.0303 16.8272C79.2675 17.0644 79.2675 17.449 79.0303 17.6862C78.7931 17.9234 78.4085 17.9234 78.1713 17.6862L74.9714 14.4863C74.7342 14.2491 74.7342 13.8645 74.9713 13.6273Z" fill="#F0CF90"/>
<path fill-rule="evenodd" clip-rule="evenodd" d="M79.0303 13.6273C79.2675 13.8645 79.2675 14.2491 79.0303 14.4863L75.8303 17.6862C75.5931 17.9234 75.2085 17.9234 74.9713 17.6862C74.7342 17.449 74.7342 17.0644 74.9714 16.8272L78.1713 13.6273C78.4085 13.3901 78.7931 13.3901 79.0303 13.6273Z" fill="#F0CF90"/>
<path fill-rule="evenodd" clip-rule="evenodd" d="M0 51.3054C0 51.0547 0.203222 50.8515 0.453908 50.8515H13.2034C13.4541 50.8515 13.6573 51.0547 13.6573 51.3054C13.6573 51.5561 13.4541 51.7593 13.2034 51.7593H0.453908C0.203222 51.7593 0 51.5561 0 51.3054Z" fill="#F0CF90"/>
<path fill-rule="evenodd" clip-rule="evenodd" d="M85.5469 51.3054C85.5469 51.0547 85.7501 50.8515 86.0008 50.8515H97.0004C97.2511 50.8515 97.4543 51.0547 97.4543 51.3054C97.4543 51.5561 97.2511 51.7593 97.0004 51.7593H86.0008C85.7501 51.7593 85.5469 51.5561 85.5469 51.3054Z" fill="#F0CF90"/>
<path fill-rule="evenodd" clip-rule="evenodd" d="M17.6494 51.3054C17.6494 51.0547 17.8526 50.8515 18.1033 50.8515H83.4008C83.6515 50.8515 83.8547 51.0547 83.8547 51.3054C83.8547 51.5561 83.6515 51.7593 83.4008 51.7593H18.1033C17.8526 51.7593 17.6494 51.5561 17.6494 51.3054Z" fill="#F0CF90"/>
<path fill-rule="evenodd" clip-rule="evenodd" d="M14.8264 56.7552C14.8264 56.6299 14.928 56.5283 15.0534 56.5283H25.5029C25.6283 56.5283 25.7299 56.6299 25.7299 56.7552C25.7299 56.8805 25.6283 56.9821 25.5029 56.9821H15.0534C14.928 56.9821 14.8264 56.8805 14.8264 56.7552Z" fill="#F0CF90"/>
<path fill-rule="evenodd" clip-rule="evenodd" d="M31.626 56.7552C31.626 56.6299 31.7276 56.5283 31.8529 56.5283H42.3025C42.4278 56.5283 42.5294 56.6299 42.5294 56.7552C42.5294 56.8805 42.4278 56.9821 42.3025 56.9821H31.8529C31.7276 56.9821 31.626 56.8805 31.626 56.7552Z" fill="#F0CF90"/>
<path fill-rule="evenodd" clip-rule="evenodd" d="M48.0254 56.7552C48.0254 56.6299 48.127 56.5283 48.2523 56.5283H69.7515C69.8769 56.5283 69.9785 56.6299 69.9785 56.7552C69.9785 56.8805 69.8769 56.9821 69.7515 56.9821H48.2523C48.127 56.9821 48.0254 56.8805 48.0254 56.7552Z" fill="#F0CF90"/>
<path fill-rule="evenodd" clip-rule="evenodd" d="M75.8743 56.7552C75.8743 56.6299 75.9759 56.5283 76.1012 56.5283H88.3007C88.426 56.5283 88.5276 56.6299 88.5276 56.7552C88.5276 56.8805 88.426 56.9821 88.3007 56.9821H76.1012C75.9759 56.9821 75.8743 56.8805 75.8743 56.7552Z" fill="#F0CF90"/>
<path fill-rule="evenodd" clip-rule="evenodd" d="M78.601 27.0138C78.0527 27.0138 77.6083 27.4582 77.6083 28.0063C77.6083 28.5545 78.0528 28.9989 78.601 28.9989C79.1491 28.9989 79.5935 28.5545 79.5935 28.0063C79.5935 27.4581 79.1491 27.0138 78.601 27.0138ZM76.3936 28.0063C76.3936 26.7872 77.382 25.799 78.601 25.799C79.82 25.799 80.8083 26.7872 80.8083 28.0063C80.8083 29.2253 79.8201 30.2137 78.601 30.2137C77.3819 30.2137 76.3936 29.2254 76.3936 28.0063Z" fill="#F0CF90"/>
<path fill-rule="evenodd" clip-rule="evenodd" d="M35.4527 2.21472C34.9045 2.21472 34.4601 2.65908 34.4601 3.20726C34.4601 3.75544 34.9045 4.1998 35.4527 4.1998C36.0008 4.1998 36.4452 3.75544 36.4452 3.20726C36.4452 2.65908 36.0008 2.21472 35.4527 2.21472ZM33.2454 3.20726C33.2454 1.98819 34.2336 0.999969 35.4527 0.999969C36.6717 0.999969 37.6599 1.98819 37.6599 3.20726C37.6599 4.42633 36.6717 5.41455 35.4527 5.41455C34.2336 5.41455 33.2454 4.42633 33.2454 3.20726Z" fill="#F0CF90"/>
<path fill-rule="evenodd" clip-rule="evenodd" d="M69.7512 1.21475C68.6367 1.21475 67.7587 2.09275 67.7587 3.20726C67.7587 4.32176 68.6367 5.19976 69.7512 5.19976C70.8657 5.19976 71.7438 4.32172 71.7438 3.20726C71.7438 2.13518 70.8582 1.21475 69.7512 1.21475ZM66.5439 3.20726C66.5439 1.42186 67.9658 0 69.7512 0C71.5441 0 72.9586 1.47943 72.9586 3.20726C72.9586 4.99268 71.5366 6.41451 69.7512 6.41451C67.9658 6.41451 66.5439 4.99265 66.5439 3.20726Z" fill="#F0CF90"/>
<path fill-rule="evenodd" clip-rule="evenodd" d="M42.7995 25.2614C43.154 24.9069 43.7288 24.9069 44.0833 25.2614L48.6439 29.822C48.9984 30.1765 48.9984 30.7513 48.6439 31.1058L33.3004 46.4493C32.9459 46.8039 32.3711 46.8039 32.0166 46.4493L27.456 41.8888C27.1015 41.5342 27.1015 40.9594 27.456 40.6049L42.7995 25.2614ZM43.4414 27.1872L29.3817 41.2468L32.6585 44.5236L46.7182 30.4639L43.4414 27.1872Z" fill="#F0CF90"/>
<path fill-rule="evenodd" clip-rule="evenodd" d="M51.4443 22.4646C51.6946 22.7149 51.7766 23.0879 51.6543 23.4201L49.0044 30.6198C48.8974 30.9103 48.6497 31.1264 48.3473 31.1928C48.0449 31.2593 47.7294 31.1671 47.5105 30.9481L42.9607 26.3983C42.7418 26.1793 42.6495 25.8639 42.716 25.5615C42.7825 25.2591 42.9985 25.0114 43.2891 24.9044L50.4888 22.2546C50.821 22.1323 51.194 22.2143 51.4443 22.4646ZM45.2482 26.1181L47.7907 28.6606L49.2716 24.6373L45.2482 26.1181Z" fill="#F0CF90"/>
<path fill-rule="evenodd" clip-rule="evenodd" d="M27.6845 40.817C28.039 40.4625 28.6138 40.4625 28.9683 40.817L33.034 44.8827C33.3885 45.2372 33.3885 45.812 33.034 46.1665L28.1552 51.0453C27.8007 51.3998 27.2259 51.3998 26.8713 51.0453L22.8057 46.9797C22.4512 46.6251 22.4512 46.0503 22.8057 45.6958L27.6845 40.817ZM28.3264 42.7427L24.7314 46.3377L27.5133 49.1196L31.1083 45.5246L28.3264 42.7427Z" fill="#F0CF90"/>
<path fill-rule="evenodd" clip-rule="evenodd" d="M46.4933 27.3633C46.8484 27.7173 46.8493 28.2921 46.4954 28.6472L31.0459 44.1466C30.6919 44.5017 30.1171 44.5026 29.762 44.1487C29.407 43.7947 29.406 43.2199 29.76 42.8648L45.2095 27.3654C45.5634 27.0103 46.1382 27.0094 46.4933 27.3633Z" fill="#F0CF90"/>
<path fill-rule="evenodd" clip-rule="evenodd" d="M26.409 39.5664C26.7622 39.2105 27.337 39.2083 27.6928 39.5615L34.3426 46.1612C34.6985 46.5144 34.7006 47.0892 34.3474 47.4451C33.9943 47.8009 33.4195 47.8031 33.0636 47.4499L26.4138 40.8502C26.058 40.497 26.0558 39.9222 26.409 39.5664Z" fill="#F0CF90"/>
<path fill-rule="evenodd" clip-rule="evenodd" d="M31.2949 11.7569C31.2949 11.2556 31.7014 10.8491 32.2027 10.8491H66.1514C66.6528 10.8491 67.0592 11.2556 67.0592 11.7569V45.7057C67.0592 46.207 66.6528 46.6135 66.1514 46.6135H38.0525C37.5511 46.6135 37.1447 46.207 37.1447 45.7057C37.1447 45.2043 37.5511 44.7979 38.0525 44.7979H65.2436V12.6648H33.1106V31.7062C33.1106 32.2076 32.7041 32.614 32.2027 32.614C31.7014 32.614 31.2949 32.2076 31.2949 31.7062V11.7569Z" fill="#F0CF90"/>
</svg>
