<svg width="109" height="17" viewBox="0 0 109 17" fill="none" xmlns="http://www.w3.org/2000/svg">
<path d="M7.358 9.422H4.376V12.446H3.186V9.422H0.218V8.344H3.186V5.306H4.376V8.344H7.358V9.422ZM15.6546 4.872L11.7626 14H10.4746L14.4226 4.998H9.01864V3.906H15.6546V4.872ZM24.2856 16.604C23.3896 15.7267 22.6896 14.6113 22.1856 13.258C21.691 11.9047 21.4436 10.444 21.4436 8.876C21.4436 7.27067 21.705 5.77267 22.2276 4.382C22.7596 2.982 23.5156 1.82933 24.4956 0.924H25.8256V1.05C24.7803 2.03 23.9916 3.21067 23.4596 4.592C22.937 5.964 22.6756 7.392 22.6756 8.876C22.6756 10.3227 22.923 11.704 23.4176 13.02C23.9216 14.336 24.6543 15.4887 25.6156 16.478V16.604H24.2856ZM28.7951 11.284C28.8884 11.816 29.1031 12.2267 29.4391 12.516C29.7844 12.8053 30.2464 12.95 30.8251 12.95C31.5997 12.95 32.1691 12.6467 32.5331 12.04C32.9064 11.4333 33.0837 10.4113 33.0651 8.974C32.8691 9.394 32.5424 9.72533 32.0851 9.968C31.6277 10.2013 31.1191 10.318 30.5591 10.318C29.9337 10.318 29.3737 10.192 28.8791 9.94C28.3937 9.67867 28.0111 9.30067 27.7311 8.806C27.4511 8.31133 27.3111 7.714 27.3111 7.014C27.3111 6.01533 27.6004 5.21267 28.1791 4.606C28.7577 3.99 29.5791 3.682 30.6431 3.682C31.9497 3.682 32.8644 4.10667 33.3871 4.956C33.9191 5.80533 34.1851 7.07 34.1851 8.75C34.1851 9.926 34.0777 10.8967 33.8631 11.662C33.6577 12.4273 33.3031 13.0107 32.7991 13.412C32.3044 13.8133 31.6231 14.014 30.7551 14.014C29.8031 14.014 29.0611 13.7573 28.5291 13.244C27.9971 12.7307 27.6937 12.0773 27.6191 11.284H28.7951ZM30.7691 9.24C31.3944 9.24 31.9077 9.04867 32.3091 8.666C32.7104 8.274 32.9111 7.74667 32.9111 7.084C32.9111 6.384 32.7151 5.81933 32.3231 5.39C31.9311 4.96067 31.3804 4.746 30.6711 4.746C30.0177 4.746 29.4951 4.95133 29.1031 5.362C28.7204 5.77267 28.5291 6.314 28.5291 6.986C28.5291 7.66733 28.7204 8.21333 29.1031 8.624C29.4857 9.03467 30.0411 9.24 30.7691 9.24ZM35.6394 5.04V3.878H38.2714V14H36.9834V5.04H35.6394ZM40.1238 5.04V3.878H42.7558V14H41.4678V5.04H40.1238ZM44.7482 16.604V16.478C45.7095 15.4887 46.4375 14.336 46.9322 13.02C47.4362 11.704 47.6882 10.3227 47.6882 8.876C47.6882 7.392 47.4222 5.964 46.8902 4.592C46.3675 3.21067 45.5835 2.03 44.5382 1.05V0.924H45.8682C46.8482 1.82933 47.5995 2.982 48.1222 4.382C48.6542 5.77267 48.9202 7.27067 48.9202 8.876C48.9202 10.444 48.6682 11.9047 48.1642 13.258C47.6695 14.6113 46.9742 15.7267 46.0782 16.604H44.7482ZM54.698 5.04V3.878H57.33V14H56.042V5.04H54.698ZM59.1824 5.04V3.878H61.8144V14H60.5264V5.04H59.1824ZM63.6668 5.04V3.878H66.2988V14H65.0108V5.04H63.6668ZM74.0171 8.33V9.408H68.4311V8.33H74.0171ZM76.1981 8.834C76.1981 7.22867 76.4594 5.978 76.9821 5.082C77.5047 4.17667 78.4194 3.724 79.7261 3.724C81.0234 3.724 81.9334 4.17667 82.4561 5.082C82.9787 5.978 83.2401 7.22867 83.2401 8.834C83.2401 10.4673 82.9787 11.7367 82.4561 12.642C81.9334 13.5473 81.0234 14 79.7261 14C78.4194 14 77.5047 13.5473 76.9821 12.642C76.4594 11.7367 76.1981 10.4673 76.1981 8.834ZM81.9801 8.834C81.9801 8.022 81.9241 7.336 81.8121 6.776C81.7094 6.20667 81.4901 5.74933 81.1541 5.404C80.8274 5.05867 80.3514 4.886 79.7261 4.886C79.0914 4.886 78.6061 5.05867 78.2701 5.404C77.9434 5.74933 77.7241 6.20667 77.6121 6.776C77.5094 7.336 77.4581 8.022 77.4581 8.834C77.4581 9.674 77.5094 10.3787 77.6121 10.948C77.7241 11.5173 77.9434 11.9747 78.2701 12.32C78.6061 12.6653 79.0914 12.838 79.7261 12.838C80.3514 12.838 80.8274 12.6653 81.1541 12.32C81.4901 11.9747 81.7094 11.5173 81.8121 10.948C81.9241 10.3787 81.9801 9.674 81.9801 8.834ZM84.6531 5.04V3.878H87.2851V14H85.9971V5.04H84.6531ZM95.0035 8.33V9.408H89.4175V8.33H95.0035ZM96.8484 5.04V3.878H99.4804V14H98.1924V5.04H96.8484ZM103.517 8.736C102.994 8.53067 102.593 8.232 102.313 7.84C102.033 7.448 101.893 6.972 101.893 6.412C101.893 5.908 102.019 5.45533 102.271 5.054C102.523 4.64333 102.896 4.32133 103.391 4.088C103.895 3.84533 104.501 3.724 105.211 3.724C105.92 3.724 106.522 3.84533 107.017 4.088C107.521 4.32133 107.899 4.64333 108.151 5.054C108.412 5.45533 108.543 5.908 108.543 6.412C108.543 6.95333 108.398 7.42933 108.109 7.84C107.819 8.24133 107.423 8.54 106.919 8.736C107.497 8.91333 107.955 9.226 108.291 9.674C108.636 10.1127 108.809 10.6447 108.809 11.27C108.809 11.8767 108.659 12.4087 108.361 12.866C108.062 13.314 107.637 13.664 107.087 13.916C106.545 14.1587 105.92 14.28 105.211 14.28C104.501 14.28 103.876 14.1587 103.335 13.916C102.803 13.664 102.387 13.314 102.089 12.866C101.79 12.4087 101.641 11.8767 101.641 11.27C101.641 10.6447 101.809 10.108 102.145 9.66C102.481 9.212 102.938 8.904 103.517 8.736ZM107.311 6.566C107.311 5.99667 107.124 5.558 106.751 5.25C106.377 4.942 105.864 4.788 105.211 4.788C104.567 4.788 104.058 4.942 103.685 5.25C103.311 5.558 103.125 6.00133 103.125 6.58C103.125 7.10267 103.316 7.52267 103.699 7.84C104.091 8.15733 104.595 8.316 105.211 8.316C105.836 8.316 106.34 8.15733 106.723 7.84C107.115 7.51333 107.311 7.08867 107.311 6.566ZM105.211 9.296C104.52 9.296 103.955 9.45933 103.517 9.786C103.078 10.1033 102.859 10.584 102.859 11.228C102.859 11.8253 103.069 12.306 103.489 12.67C103.918 13.034 104.492 13.216 105.211 13.216C105.929 13.216 106.499 13.034 106.919 12.67C107.339 12.306 107.549 11.8253 107.549 11.228C107.549 10.6027 107.334 10.1267 106.905 9.8C106.475 9.464 105.911 9.296 105.211 9.296Z" fill="white"/>
</svg>
